<svg width="640" height="176" viewBox="0 0 640 176" fill="none" xmlns="http://www.w3.org/2000/svg">
<path d="M4.36673 84.0859C3.55032 84.0401 2.7387 84.2377 2.03442 84.6537C1.33014 85.0698 0.764819 85.6855 0.4099 86.4231C0.0549816 87.1608 -0.0736052 87.9872 0.0403904 88.7981C0.154386 89.6089 0.505847 90.3676 1.05036 90.9785C1.59487 91.5893 2.30799 92.0248 3.0996 92.2299C3.8912 92.4351 4.72577 92.4006 5.49782 92.1309C6.26987 91.8612 6.94476 91.3684 7.43719 90.7147C7.92962 90.061 8.21749 89.2759 8.26443 88.4584C8.29657 87.9147 8.22112 87.37 8.04241 86.8556C7.8637 86.3413 7.58525 85.8673 7.22307 85.461C6.86088 85.0547 6.42209 84.724 5.93191 84.488C5.44173 84.252 4.90982 84.1154 4.36673 84.0859Z" fill="#030321"/>
<path d="M52.1185 87.3372C51.9235 90.7377 53.0846 94.0767 55.3467 96.6204C57.6088 99.1642 60.7868 100.705 64.1825 100.903H64.8822C67.3831 100.901 69.8284 100.165 71.9163 98.7862C74.0043 97.4079 75.6435 95.4475 76.6317 93.1471C77.6199 90.8466 77.9138 88.3067 77.4771 85.8409C77.0405 83.3751 75.8923 81.0913 74.1745 79.2714C72.4566 77.4514 70.2441 76.175 67.8102 75.5997C65.3763 75.0243 62.8274 75.1752 60.4781 76.0337C58.1288 76.8923 56.0819 78.4208 54.5902 80.4308C53.0984 82.4407 52.227 84.8441 52.0835 87.3442L52.1185 87.3372Z" fill="#030321"/>
<path d="M4.36673 84.0859C3.55032 84.0401 2.7387 84.2377 2.03442 84.6537C1.33014 85.0698 0.764819 85.6855 0.4099 86.4231C0.0549816 87.1608 -0.0736052 87.9872 0.0403904 88.7981C0.154386 89.6089 0.505847 90.3676 1.05036 90.9785C1.59487 91.5893 2.30799 92.0248 3.0996 92.2299C3.8912 92.4351 4.72577 92.4006 5.49782 92.1309C6.26987 91.8612 6.94476 91.3684 7.43719 90.7147C7.92962 90.061 8.21749 89.2759 8.26443 88.4584C8.29657 87.9147 8.22112 87.37 8.04241 86.8556C7.8637 86.3413 7.58525 85.8673 7.22307 85.461C6.86088 85.0547 6.42209 84.724 5.93191 84.488C5.44173 84.252 4.90982 84.1154 4.36673 84.0859Z" fill="#030321"/>
<path d="M51.307 12.9129C52.0341 12.539 52.6345 11.958 53.0326 11.2432C53.4308 10.5283 53.6088 9.71147 53.5443 8.8955C53.4798 8.07954 53.1757 7.30091 52.6703 6.65763C52.1649 6.01436 51.4807 5.53518 50.7039 5.28043C49.9271 5.02569 49.0924 5.00675 48.3049 5.226C47.5174 5.44526 46.8122 5.89291 46.2782 6.5126C45.7442 7.13229 45.4052 7.89633 45.3039 8.70853C45.2026 9.52073 45.3435 10.3448 45.7089 11.077C45.9545 11.5671 46.2945 12.0036 46.7094 12.3615C47.1243 12.7194 47.6058 12.9915 48.1262 13.1622C48.6466 13.3328 49.1956 13.3987 49.7415 13.3559C50.2874 13.3131 50.8195 13.1626 51.307 12.9129Z" fill="#030321"/>
<path d="M64.3014 35.6025C65.4306 35.032 66.3656 34.1392 66.9882 33.0367C67.6107 31.9342 67.8929 30.6717 67.799 29.4087C67.7051 28.1456 67.2393 26.9388 66.4606 25.9408C65.6819 24.9428 64.6252 24.1984 63.424 23.8017C62.2229 23.4051 60.9313 23.3739 59.7124 23.7122C58.4936 24.0505 57.4023 24.743 56.5765 25.7023C55.7506 26.6616 55.2274 27.8445 55.0728 29.1016C54.9183 30.3586 55.1394 31.6333 55.7082 32.7645C56.0861 33.5161 56.6082 34.1857 57.2447 34.7351C57.8812 35.2845 58.6195 35.703 59.4175 35.9665C60.2156 36.2301 61.0576 36.3336 61.8956 36.2711C62.7336 36.2087 63.5511 35.9814 64.3014 35.6025Z" fill="#030321"/>
<path d="M20.5736 51.2077C21.4446 51.7812 22.4659 52.0832 23.5084 52.0754C24.5508 52.0675 25.5675 51.7502 26.4298 51.1636C27.2921 50.5769 27.9613 49.7474 28.3526 48.7798C28.7439 47.8122 28.8399 46.7502 28.6283 45.728C28.4167 44.7058 27.9071 43.7695 27.1639 43.0374C26.4207 42.3054 25.4774 41.8105 24.4533 41.6155C23.4291 41.4204 22.3703 41.5339 21.4106 41.9417C20.4509 42.3494 19.6336 43.0331 19.0621 43.9061C18.2966 45.0753 18.0258 46.501 18.3092 47.87C18.5926 49.2391 19.407 50.4395 20.5736 51.2077Z" fill="#030321"/>
<path d="M28.3619 81.7524C27.0992 81.6811 25.8438 81.9862 24.7542 82.6292C23.6647 83.2722 22.7899 84.2243 22.2406 85.365C21.6912 86.5057 21.492 87.7839 21.6679 89.038C21.8439 90.2921 22.3872 91.4659 23.2292 92.4108C24.0712 93.3558 25.174 94.0296 26.3983 94.3471C27.6226 94.6645 28.9135 94.6114 30.1076 94.1944C31.3018 93.7774 32.3457 93.0152 33.1074 92.0042C33.8691 90.9932 34.3143 89.7788 34.3869 88.5145C34.4824 86.8179 33.9015 85.1528 32.7718 83.8849C31.6421 82.617 30.056 81.85 28.3619 81.7524Z" fill="#030321"/>
<path d="M21.2736 124.812C20.3437 125.283 19.5739 126.019 19.0617 126.928C18.5495 127.836 18.3178 128.876 18.3959 129.917C18.474 130.957 18.8584 131.951 19.5005 132.773C20.1426 133.595 21.0136 134.207 22.0034 134.534C22.9931 134.86 24.0572 134.885 25.0611 134.605C26.065 134.326 26.9637 133.755 27.6435 132.964C28.3234 132.173 28.7538 131.199 28.8805 130.163C29.0072 129.127 28.8244 128.077 28.3552 127.146C28.0435 126.527 27.613 125.975 27.0883 125.523C26.5636 125.07 25.955 124.726 25.2973 124.509C24.6397 124.293 23.9458 124.208 23.2554 124.26C22.5649 124.312 21.8915 124.499 21.2736 124.812Z" fill="#030321"/>
<path d="M46.136 68.5157C47.3815 69.333 48.841 69.7622 50.33 69.749C51.8191 69.7357 53.2708 69.2806 54.5015 68.4413C55.7323 67.6019 56.6869 66.4159 57.2446 65.0333C57.8023 63.6507 57.9381 62.1335 57.6348 60.6736C57.3315 59.2137 56.6027 57.8767 55.5406 56.8315C54.4784 55.7864 53.1307 55.0801 51.6677 54.8019C50.2048 54.5238 48.6923 54.6862 47.3215 55.2688C45.9508 55.8514 44.7833 56.8279 43.9667 58.0748C43.4235 58.9027 43.0486 59.8297 42.8637 60.8028C42.6787 61.7759 42.6872 62.776 42.8887 63.7458C43.0902 64.7156 43.4807 65.6361 44.0379 66.4546C44.5951 67.2731 45.3081 67.9735 46.136 68.5157Z" fill="#030321"/>
<path d="M125.013 35.098C126.074 35.7906 127.315 36.1529 128.581 36.139C129.847 36.1252 131.081 35.7357 132.126 35.02C133.171 34.3042 133.981 33.2943 134.453 32.1178C134.925 30.9414 135.038 29.6512 134.778 28.4104C134.517 27.1696 133.896 26.0339 132.991 25.1468C132.087 24.2597 130.94 23.6612 129.695 23.4267C128.451 23.1922 127.165 23.3324 126.001 23.8296C124.836 24.3267 123.845 25.1585 123.152 26.2197C122.691 26.9247 122.373 27.7138 122.217 28.542C122.061 29.3701 122.069 30.221 122.242 31.0457C122.415 31.8705 122.749 32.653 123.224 33.3484C123.7 34.0438 124.308 34.6383 125.013 35.098Z" fill="#030321"/>
<path d="M138.142 12.4784C138.827 12.9283 139.63 13.1645 140.45 13.1572C141.269 13.1498 142.068 12.8991 142.746 12.437C143.423 11.9748 143.948 11.3218 144.255 10.5607C144.561 9.79961 144.635 8.96454 144.468 8.16117C144.3 7.3578 143.899 6.62224 143.314 6.04755C142.728 5.47286 141.986 5.08487 141.181 4.93267C140.376 4.78047 139.543 4.87089 138.789 5.19251C138.035 5.51413 137.393 6.05248 136.945 6.73945C136.344 7.65959 136.133 8.78082 136.357 9.85686C136.582 10.9329 137.224 11.8758 138.142 12.4784Z" fill="#030321"/>
<path d="M126.021 75.1306C124.342 75.0339 122.66 75.2695 121.071 75.8238C119.483 76.3781 118.019 77.2402 116.763 78.361C114.227 80.6246 112.693 83.8043 112.498 87.2006C112.303 90.5969 113.463 93.9316 115.724 96.4712C117.984 99.0107 121.16 100.547 124.551 100.742C124.796 100.742 125.048 100.742 125.293 100.742C127.764 100.741 130.181 100.024 132.254 98.6779C134.327 97.3317 135.967 95.4138 136.976 93.1554C137.985 90.8969 138.32 88.3945 137.941 85.9497C137.561 83.5049 136.484 81.2223 134.838 79.377C133.723 78.1185 132.37 77.0948 130.856 76.3658C129.342 75.6367 127.699 75.2168 126.021 75.1306Z" fill="#030321"/>
<path d="M68.5078 67.6257C69.5709 69.7525 71.2058 71.5398 73.2284 72.7865C75.251 74.0332 77.581 74.6897 79.956 74.6821C82.1457 74.6826 84.2989 74.1211 86.2103 73.0513C88.1216 71.9815 89.7273 70.439 90.874 68.571C92.0208 66.7031 92.6703 64.572 92.7607 62.3812C92.851 60.1904 92.3792 58.013 91.3902 56.0567C90.3197 53.9396 88.6817 52.1628 86.6598 50.9252C84.6379 49.6876 82.3118 49.0381 79.942 49.0494C77.7591 49.0532 75.6133 49.6153 73.7083 50.6825C71.8032 51.7498 70.202 53.2867 69.0566 55.1476C67.9112 57.0084 67.2596 59.1315 67.1635 61.3153C67.0675 63.4991 67.5302 65.6713 68.5078 67.6257Z" fill="#030321"/>
<path d="M168.924 51.1937C169.855 50.7237 170.625 49.9881 171.137 49.0799C171.65 48.1718 171.883 47.1318 171.805 46.0914C171.728 45.051 171.344 44.057 170.703 43.2348C170.062 42.4127 169.191 41.7994 168.202 41.4724C167.213 41.1454 166.149 41.1195 165.145 41.3978C164.141 41.6762 163.241 42.2463 162.561 43.0362C161.88 43.8261 161.449 44.8003 161.321 45.8357C161.193 46.8711 161.375 47.9212 161.843 48.8533C162.473 50.1034 163.572 51.0521 164.9 51.4909C166.228 51.9298 167.675 51.8229 168.924 51.1937Z" fill="#030321"/>
<path d="M136.448 55.2789C135.118 55.9497 134.016 57.0004 133.283 58.298C132.549 59.5957 132.216 61.0821 132.326 62.5693C132.436 64.0565 132.983 65.4776 133.9 66.653C134.816 67.8284 136.06 68.7053 137.474 69.1727C138.889 69.6402 140.409 69.6772 141.845 69.2792C143.28 68.8811 144.565 68.0658 145.537 66.9364C146.51 65.807 147.126 64.4142 147.308 62.9342C147.49 61.4541 147.229 59.9533 146.559 58.6214C146.115 57.7364 145.501 56.9478 144.753 56.3007C144.004 55.6537 143.135 55.1608 142.196 54.8503C141.257 54.5399 140.266 54.4179 139.279 54.4915C138.293 54.565 137.331 54.8326 136.448 55.2789Z" fill="#030321"/>
<path d="M94.6161 10.5444C95.6568 10.6038 96.6916 10.3527 97.5898 9.82304C98.4879 9.29335 99.209 8.50881 99.6618 7.56868C100.115 6.62854 100.279 5.57505 100.134 4.54146C99.9884 3.50787 99.5403 2.54062 98.8461 1.76207C98.1518 0.983514 97.2426 0.42864 96.2334 0.167634C95.2241 -0.0933717 94.1603 -0.0487832 93.1764 0.29576C92.1925 0.640302 91.3327 1.26932 90.7059 2.10324C90.079 2.93716 89.7132 3.93852 89.6548 4.98065C89.5765 6.37713 90.0551 7.74762 90.9854 8.7909C91.9157 9.83419 93.2216 10.4649 94.6161 10.5444Z" fill="#030321"/>
<path d="M94.5598 43.7519C96.0462 43.8354 97.524 43.4757 98.8063 42.7184C100.089 41.961 101.118 40.84 101.764 39.497C102.411 38.154 102.645 36.6493 102.437 35.173C102.23 33.6968 101.59 32.3152 100.598 31.2031C99.6071 30.0909 98.3087 29.2979 96.8674 28.9245C95.4262 28.551 93.9067 28.6138 92.501 29.1049C91.0953 29.596 89.8666 30.4933 88.9701 31.6835C88.0736 32.8737 87.5495 34.3033 87.4642 35.7917C87.3515 37.7894 88.0356 39.7501 89.3662 41.2428C90.6968 42.7356 92.5649 43.6381 94.5598 43.7519Z" fill="#030321"/>
<path d="M53.7634 120.72C55.0933 120.048 56.1945 118.997 56.9276 117.699C57.6608 116.401 57.9931 114.914 57.8824 113.427C57.7717 111.94 57.2231 110.519 56.3059 109.344C55.3887 108.169 54.1441 107.293 52.7295 106.826C51.315 106.359 49.794 106.323 48.359 106.722C46.924 107.121 45.6394 107.938 44.6677 109.068C43.6959 110.198 43.0808 111.592 42.8999 113.072C42.7191 114.552 42.9808 116.053 43.6518 117.384C44.5513 119.169 46.1218 120.523 48.018 121.149C49.9141 121.774 51.9808 121.62 53.7634 120.72Z" fill="#030321"/>
<path d="M99.4229 54.7534C97.8612 57.1398 97.139 59.9796 97.3705 62.8233C97.6019 65.6671 98.7738 68.3523 100.701 70.454C102.628 72.5557 105.2 73.9539 108.009 74.4273C110.819 74.9006 113.706 74.4221 116.214 73.0675C118.721 71.7129 120.706 69.5595 121.854 66.9481C123.002 64.3368 123.248 61.4167 122.552 58.6499C121.856 55.8832 120.259 53.4278 118.012 51.6724C115.766 49.9171 113 48.962 110.15 48.9583C108.022 48.9569 105.928 49.4858 104.055 50.4975C102.182 51.5092 100.59 52.9718 99.4229 54.7534Z" fill="#030321"/>
<path d="M121.69 108.38C120.664 106.343 119.114 104.617 117.199 103.379C115.285 102.142 113.075 101.439 110.799 101.342C108.522 101.246 106.261 101.759 104.249 102.829C102.237 103.9 100.546 105.488 99.3512 107.431C98.1566 109.374 97.5014 111.601 97.4531 113.882C97.4048 116.163 97.9652 118.416 99.0764 120.408C100.188 122.4 101.81 124.059 103.775 125.214C105.74 126.369 107.977 126.977 110.256 126.977C112.26 126.964 114.234 126.484 116.022 125.576C119.046 124.043 121.34 121.373 122.402 118.15C123.465 114.927 123.209 111.414 121.69 108.38Z" fill="#030321"/>
<path d="M144.068 107.483C142.823 106.665 141.364 106.234 139.875 106.247C138.386 106.259 136.934 106.713 135.702 107.551C134.471 108.39 133.515 109.575 132.957 110.958C132.398 112.34 132.261 113.857 132.564 115.317C132.866 116.777 133.594 118.115 134.656 119.161C135.717 120.207 137.065 120.914 138.527 121.193C139.99 121.472 141.503 121.31 142.874 120.728C144.245 120.147 145.413 119.171 146.231 117.924C147.323 116.251 147.708 114.213 147.303 112.256C146.898 110.299 145.735 108.583 144.068 107.483Z" fill="#030321"/>
<path d="M168.588 88.2202C168.659 86.9557 168.354 85.6985 167.712 84.6075C167.07 83.5164 166.119 82.6405 164.98 82.0904C163.841 81.5403 162.565 81.3408 161.312 81.517C160.06 81.6932 158.888 82.2372 157.944 83.0804C157 83.9235 156.327 85.0279 156.01 86.2539C155.693 87.4799 155.746 88.7725 156.163 89.9683C156.579 91.1641 157.34 92.2094 158.35 92.9721C159.36 93.7349 160.572 94.1807 161.835 94.2534C163.529 94.3491 165.192 93.7674 166.458 92.6361C167.724 91.5049 168.49 89.9166 168.588 88.2202Z" fill="#030321"/>
<path d="M186.306 83.6584C185.489 83.6112 184.675 83.808 183.969 84.2239C183.262 84.6398 182.695 85.256 182.339 85.9948C181.982 86.7335 181.852 87.5615 181.966 88.3741C182.079 89.1866 182.431 89.9473 182.976 90.5598C183.521 91.1723 184.235 91.6092 185.028 91.8152C185.821 92.0213 186.658 91.9871 187.431 91.7172C188.205 91.4473 188.882 90.9536 189.375 90.2987C189.869 89.6438 190.157 88.857 190.204 88.0379C190.265 86.9401 189.89 85.8627 189.159 85.0418C188.428 84.2209 187.403 83.7234 186.306 83.6584Z" fill="#030321"/>
<path d="M169.624 124.791C168.752 124.219 167.731 123.919 166.689 123.929C165.647 123.938 164.631 124.257 163.77 124.844C162.909 125.432 162.241 126.262 161.851 127.229C161.461 128.197 161.366 129.258 161.578 130.28C161.79 131.301 162.3 132.237 163.044 132.968C163.787 133.7 164.73 134.194 165.753 134.389C166.777 134.584 167.835 134.47 168.795 134.063C169.754 133.655 170.571 132.972 171.143 132.1C171.522 131.52 171.784 130.871 171.914 130.19C172.043 129.509 172.037 128.809 171.896 128.13C171.755 127.452 171.482 126.807 171.092 126.234C170.702 125.661 170.203 125.171 169.624 124.791Z" fill="#030321"/>
<path d="M52.0633 163.52C51.3783 163.07 50.5755 162.834 49.7563 162.841C48.9371 162.847 48.1383 163.097 47.4609 163.559C46.7835 164.02 46.2579 164.672 45.9505 165.432C45.6432 166.193 45.5679 167.027 45.7342 167.831C45.9005 168.634 46.3009 169.37 46.8848 169.945C47.4687 170.521 48.2099 170.91 49.0147 171.064C49.8194 171.217 50.6516 171.128 51.406 170.809C52.1604 170.489 52.8031 169.952 53.2529 169.266C53.5517 168.811 53.758 168.301 53.8599 167.766C53.9618 167.23 53.9574 166.68 53.8469 166.147C53.7365 165.613 53.5221 165.106 53.216 164.656C52.91 164.205 52.5183 163.819 52.0633 163.52Z" fill="#030321"/>
<path d="M138.89 163.086C138.158 163.455 137.552 164.034 137.149 164.748C136.745 165.462 136.562 166.28 136.623 167.098C136.684 167.916 136.986 168.698 137.49 169.345C137.995 169.991 138.68 170.473 139.458 170.73C140.236 170.987 141.073 171.007 141.862 170.787C142.652 170.568 143.359 170.119 143.893 169.497C144.428 168.876 144.767 168.109 144.866 167.295C144.966 166.48 144.822 165.654 144.453 164.922C144.209 164.435 143.871 164.001 143.459 163.645C143.047 163.289 142.569 163.018 142.052 162.848C141.535 162.677 140.99 162.61 140.447 162.651C139.905 162.692 139.375 162.84 138.89 163.086Z" fill="#030321"/>
<path d="M90.7743 121.224C92.3361 118.838 93.0583 115.998 92.8267 113.154C92.595 110.31 91.4227 107.624 89.4952 105.522C87.5678 103.421 84.9954 102.023 82.1853 101.55C79.3752 101.077 76.4878 101.556 73.9803 102.912C71.4728 104.267 69.4883 106.422 68.3412 109.034C67.194 111.646 66.9496 114.566 67.6466 117.333C68.3437 120.1 69.9424 122.555 72.1896 124.309C74.4369 126.064 77.2043 127.017 80.0539 127.019C82.1819 127.027 84.2779 126.5 86.1505 125.488C88.0231 124.476 89.6127 123.01 90.7743 121.224Z" fill="#030321"/>
<path d="M65.183 140.908C64.1246 140.215 62.8847 139.851 61.6201 139.863C60.3554 139.875 59.1227 140.263 58.0779 140.976C57.033 141.69 56.2229 142.698 55.7499 143.872C55.2768 145.047 55.1622 146.335 55.4203 147.575C55.6785 148.815 56.2979 149.95 57.2003 150.837C58.1027 151.725 59.2476 152.324 60.4902 152.56C61.7327 152.796 63.0173 152.658 64.1814 152.163C65.3455 151.668 66.3369 150.838 67.0303 149.779C67.9591 148.357 68.2863 146.624 67.9399 144.961C67.5935 143.297 66.6019 141.84 65.183 140.908Z" fill="#030321"/>
<path d="M95.0421 165.454C94.0018 165.395 92.9672 165.646 92.0693 166.176C91.1714 166.705 90.4504 167.489 89.9974 168.429C89.5445 169.369 89.38 170.422 89.5247 171.455C89.6694 172.488 90.1168 173.456 90.8103 174.234C91.5039 175.013 92.4125 175.568 93.4212 175.83C94.4299 176.092 95.4934 176.048 96.4774 175.705C97.4613 175.361 98.3215 174.733 98.9491 173.9C99.5767 173.067 99.9436 172.067 100.003 171.025C100.043 170.333 99.9463 169.64 99.7185 168.985C99.4906 168.331 99.1362 167.728 98.6754 167.21C98.2147 166.693 97.6567 166.272 97.0332 165.97C96.4098 165.669 95.7332 165.494 95.0421 165.454Z" fill="#030321"/>
<path d="M95.0985 132.254C93.6108 132.163 92.1297 132.517 90.8429 133.27C89.556 134.023 88.5213 135.142 87.8698 136.484C87.2182 137.826 86.9792 139.332 87.183 140.811C87.3868 142.289 88.0242 143.674 89.0145 144.789C90.0047 145.905 91.3033 146.701 92.7458 147.077C94.1882 147.453 95.7096 147.391 97.1172 146.901C98.5249 146.41 99.7554 145.512 100.653 144.32C101.551 143.129 102.075 141.697 102.159 140.207C102.274 138.215 101.595 136.259 100.271 134.768C98.9476 133.277 97.0873 132.373 95.0985 132.254Z" fill="#030321"/>
<path d="M125.896 140.396C124.766 140.97 123.831 141.867 123.211 142.973C122.59 144.08 122.311 145.345 122.409 146.61C122.507 147.875 122.978 149.083 123.761 150.08C124.545 151.077 125.606 151.818 126.811 152.211C128.016 152.604 129.31 152.63 130.53 152.285C131.749 151.941 132.839 151.243 133.662 150.278C134.485 149.313 135.003 148.125 135.152 146.865C135.3 145.605 135.072 144.329 134.496 143.199C134.115 142.449 133.591 141.782 132.953 141.235C132.315 140.688 131.575 140.272 130.776 140.012C129.977 139.751 129.135 139.651 128.298 139.717C127.46 139.783 126.644 140.014 125.896 140.396Z" fill="#030321"/>
<path d="M229.265 90.6166H268.942V99.3968H239.552V114.385H266.045V123.172H239.566V145.897H229.265V90.6166Z" fill="#030321"/>
<path d="M271.678 124.728C271.678 109.501 278.675 102.571 292.517 102.571C306.358 102.571 313.363 109.501 313.363 124.728C313.363 139.955 306.365 146.892 292.517 146.892C278.668 146.892 271.678 139.934 271.678 124.728ZM303.384 125.296V124.167C303.384 114.981 300.242 110.468 292.517 110.468C284.791 110.468 281.656 114.981 281.656 124.167V125.296C281.656 134.482 284.714 138.995 292.517 138.995C300.319 138.995 303.384 134.454 303.384 125.268V125.296Z" fill="#030321"/>
<path d="M321.725 132.114V103.51H331.382V130.425C331.382 136.465 334.363 138.483 339.191 138.483C344.503 138.483 348.687 134.209 348.687 128.169V103.51H358.344V145.897H350.381L349.576 140.256H349.009C347.44 142.371 345.385 144.075 343.018 145.226C340.651 146.376 338.042 146.938 335.413 146.864C327.281 146.864 321.725 142.947 321.725 132.114Z" fill="#030321"/>
<path d="M369.61 103.51H377.574L378.378 109.151H378.945C380.516 107.032 382.574 105.325 384.945 104.175C387.316 103.024 389.929 102.465 392.563 102.543C400.61 102.543 406.243 106.488 406.243 117.258V145.869H396.586V118.982C396.586 112.935 393.605 110.924 388.777 110.924C383.466 110.924 379.267 115.191 379.267 121.224V145.883H369.61V103.51Z" fill="#030321"/>
<path d="M414.514 124.623C414.514 109.389 421.351 102.543 430.77 102.543C436.564 102.543 440.909 104.477 443.485 108.422H443.967V87.6315H453.624V145.897H445.661L444.856 140.256H444.345C441.546 144.685 436.774 146.864 431.386 146.864C421.029 146.864 414.514 140.095 414.514 124.623ZM443.967 125.268V124.301C443.967 115.675 441.07 110.84 434.311 110.84C427.145 110.84 424.514 115.044 424.514 124.217V125.268C424.514 134.377 427.089 138.581 434.311 138.581C441.154 138.56 443.967 133.838 443.967 125.268Z" fill="#030321"/>
<path d="M461.748 134.938C461.748 123.411 472.776 120.222 488.339 120.222V116.677C488.339 113.054 487.052 110.23 481.097 110.23C474.904 110.23 473.294 112.732 473.294 114.988V116.116H463.938C463.862 115.528 463.834 114.936 463.854 114.343C463.854 107.007 470.775 102.578 481.076 102.578C492.503 102.578 497.975 107.483 497.975 115.955V136.178C497.948 136.553 498.002 136.93 498.133 137.282C498.264 137.634 498.469 137.954 498.735 138.22C499 138.486 499.32 138.692 499.672 138.823C500.024 138.954 500.4 139.008 500.774 138.981H503.349V145.589C501.444 146.414 499.386 146.825 497.31 146.794C493.112 146.794 490.229 144.622 489.263 141.076H488.703C485.904 144.538 481.782 146.878 475.184 146.878C470.362 146.864 461.748 145.252 461.748 134.938ZM488.339 128.974V127.04C479.165 127.04 471.685 128.33 471.685 133.971C471.685 137.355 473.854 139.128 478.123 139.128C484.525 139.128 488.304 135.099 488.304 128.974H488.339Z" fill="#030321"/>
<path d="M510.193 136.304V111.414H505.042V103.51H510.354L512.124 91.6607H519.822V103.51H527.064V111.414H519.85V135.344C519.85 137.685 520.976 138.974 523.348 138.974H527.127V145.582C524.96 146.38 522.676 146.816 520.367 146.871C512.53 146.864 510.193 141.546 510.193 136.304Z" fill="#030321"/>
<path d="M534.902 87.6315H544.412V97.1404H534.902V87.6315ZM534.902 103.51H544.559V145.897H534.902V103.51Z" fill="#030321"/>
<path d="M553.09 124.728C553.09 109.501 560.087 102.571 573.929 102.571C587.77 102.571 594.796 109.473 594.796 124.728C594.796 139.983 587.798 146.892 573.95 146.892C560.102 146.892 553.09 139.934 553.09 124.728ZM584.796 125.296V124.167C584.796 114.981 581.654 110.468 573.929 110.468C566.203 110.468 563.068 114.981 563.068 124.167V125.296C563.068 134.482 566.126 138.995 573.929 138.995C581.731 138.995 584.796 134.454 584.796 125.268V125.296Z" fill="#030321"/>
<path d="M603.381 103.51H611.352L612.156 109.151H612.716C614.286 107.036 616.343 105.331 618.711 104.181C621.079 103.03 623.689 102.469 626.32 102.543C634.367 102.543 640 106.488 640 117.258V145.869H630.343V118.982C630.343 112.935 627.362 110.924 622.534 110.924C617.223 110.924 613.038 115.191 613.038 121.238V145.897H603.381V103.51Z" fill="#030321"/>
<path d="M227.088 44.6839C227.088 25.2597 236.885 16.0732 253.812 16.0732C267.57 16.0732 278.192 23.0034 278.192 37.4314H267.654C267.654 29.2118 262.021 24.7762 253.973 24.7762C242.868 24.7762 237.634 31.2229 237.634 43.8781V45.4897C237.634 58.3831 242.784 64.5846 253.973 64.5846C262.504 64.5846 268.053 60.156 268.053 52.0976H278.192C278.192 66.5186 267.731 73.2946 253.812 73.2946C236.906 73.2876 227.088 64.5846 227.088 44.6839Z" fill="#030321"/>
<path d="M284.147 61.3612C284.147 49.8412 295.169 46.6459 310.704 46.6459V43.0722C310.704 39.4424 309.416 36.6255 303.461 36.6255C297.261 36.6255 295.652 39.1201 295.652 41.3764V42.5046H286.317C286.247 41.9164 286.221 41.3238 286.24 40.7318C286.24 33.4022 293.16 28.9666 303.461 28.9666C314.888 28.9666 320.36 33.8716 320.36 42.3435V62.5735C320.332 62.9488 320.385 63.3258 320.516 63.6787C320.646 64.0316 320.852 64.3521 321.117 64.6183C321.383 64.8844 321.703 65.0899 322.056 65.2208C322.408 65.3516 322.785 65.4047 323.159 65.3764H325.735V71.9843C323.833 72.8141 321.777 73.2274 319.703 73.1965C315.504 73.1965 312.621 71.0172 311.655 67.4716H311.088C308.289 70.9752 304.168 73.2736 297.569 73.2736C292.755 73.2876 284.147 71.6759 284.147 61.3612ZM310.69 55.398V53.464C301.516 53.464 294.028 54.7533 294.028 60.3942C294.028 63.7787 296.204 65.5516 300.466 65.5516C306.918 65.5516 310.69 61.5224 310.69 55.398Z" fill="#030321"/>
<path d="M332.026 29.9336H339.996L340.878 36.6255H341.48C343.005 32.5964 345.678 28.9666 350.976 28.9666C352.348 28.9512 353.712 29.1887 354.999 29.6673V38.7768H351.906C345.307 38.7768 341.683 42.4066 341.683 50.2197V72.2996H332.026V29.9336Z" fill="#030321"/>
<path d="M359.064 51.0465C359.064 35.8197 365.908 28.9666 375.32 28.9666C381.114 28.9666 385.46 30.9006 388.035 34.8527H388.518V14.0621H398.16V72.3206H390.211L389.406 66.7148H388.923C386.124 71.1504 381.359 73.3297 375.964 73.3297C365.586 73.2876 359.064 66.5186 359.064 51.0465ZM388.518 51.6912V50.7242C388.518 42.1052 385.621 37.2702 378.861 37.2702C371.702 37.2702 369.064 41.4746 369.064 50.6471V51.6912C369.064 60.8007 371.639 65.005 378.861 65.005C385.705 64.991 388.518 60.2611 388.518 51.6912Z" fill="#030321"/>
<path d="M406.306 61.3612C406.306 49.8412 417.327 46.6459 432.897 46.6459V43.0722C432.897 39.4424 431.61 36.6255 425.655 36.6255C419.455 36.6255 417.845 39.1201 417.845 41.3764V42.5046H408.475C408.406 41.9164 408.38 41.3238 408.398 40.7318C408.398 33.4022 415.319 28.9666 425.62 28.9666C437.047 28.9666 442.519 33.8716 442.519 42.3435V62.5735C442.491 62.9488 442.544 63.3258 442.674 63.6787C442.805 64.0316 443.01 64.3521 443.276 64.6183C443.542 64.8844 443.862 65.0899 444.214 65.2208C444.567 65.3516 444.943 65.4047 445.318 65.3764H447.893V71.9843C445.992 72.8141 443.935 73.2274 441.861 73.1965C437.663 73.1965 434.78 71.0172 433.814 67.4716H433.247C430.448 70.9752 426.326 73.2736 419.728 73.2736C414.913 73.2876 406.306 71.6759 406.306 61.3612ZM432.897 55.398V53.464C423.723 53.464 416.236 54.7533 416.236 60.3942C416.236 63.7787 418.412 65.5516 422.674 65.5516C429.077 65.5516 432.862 61.5224 432.862 55.398H432.897Z" fill="#030321"/>
<path d="M454.184 29.9336H462.154L462.959 35.5744H463.519C465.09 33.4602 467.146 31.7559 469.514 30.6057C471.882 29.4555 474.491 28.8933 477.122 28.9665C485.169 28.9665 490.802 32.9187 490.802 43.6818V72.2856H481.146V45.4056C481.146 39.3654 478.165 37.3473 473.336 37.3473C468.025 37.3473 463.84 41.6217 463.84 47.662V72.3206H454.184V29.9336Z" fill="#030321"/>
<path d="M499.172 51.1516C499.172 35.9178 506.17 28.9876 520.011 28.9876C533.853 28.9876 540.857 35.8968 540.857 51.1516C540.857 66.4065 533.86 73.3087 520.011 73.3087C506.163 73.3087 499.172 66.3574 499.172 51.1516ZM530.879 51.7122V50.563C530.879 41.3765 527.737 36.8638 520.011 36.8638C512.286 36.8638 509.151 41.3765 509.151 50.563V51.6912C509.151 60.8777 512.209 65.3904 520.011 65.3904C527.814 65.3904 530.879 60.8777 530.879 51.6912V51.7122Z" fill="#030321"/>
</svg>
